<?xml version="1.0" encoding="UTF-8"?>
<svg id="Layer_1" data-name="Layer 1" xmlns="http://www.w3.org/2000/svg" viewBox="0 0 1342.17 610">
  <defs>
    <style>
      .cls-1, .cls-2 {
        font-family: Roboto-Regular, Roboto;
      }

      .cls-1, .cls-2, .cls-3 {
        font-size: 20px;
      }

      .cls-1, .cls-4 {
        letter-spacing: -.01em;
      }

      .cls-5 {
        stroke-width: 1.13px;
      }

      .cls-5, .cls-6, .cls-7, .cls-8, .cls-9 {
        stroke-miterlimit: 10;
      }

      .cls-5, .cls-10, .cls-7, .cls-8, .cls-11, .cls-9 {
        stroke: #000;
      }

      .cls-5, .cls-9 {
        fill: #fff6bf;
      }

      .cls-6 {
        stroke: #fff;
        stroke-width: 3px;
      }

      .cls-6, .cls-10, .cls-11 {
        fill: none;
      }

      .cls-10, .cls-11 {
        stroke-linejoin: round;
        stroke-width: 2px;
      }

      .cls-12, .cls-13, .cls-3 {
        isolation: isolate;
      }

      .cls-13 {
        font-size: 24px;
      }

      .cls-13, .cls-14 {
        fill: #fff;
      }

      .cls-13, .cls-3 {
        font-family: Roboto-Bold, Roboto;
        font-weight: 700;
      }

      .cls-7 {
        fill: #eaeaea;
      }

      .cls-8 {
        fill: #c0e3fa;
      }

      .cls-15 {
        letter-spacing: -.06em;
      }

      .cls-16 {
        letter-spacing: -.02em;
      }

      .cls-17 {
        letter-spacing: -.02em;
      }

      .cls-18 {
        letter-spacing: -.01em;
      }

      .cls-11 {
        stroke-dasharray: 1.98 6.91;
        stroke-linecap: round;
      }

      .cls-19 {
        letter-spacing: -.05em;
      }

      .cls-20 {
        letter-spacing: 0em;
      }

      .cls-21 {
        letter-spacing: 0em;
      }

      .cls-22 {
        fill: #232e9b;
      }

      .cls-23 {
        letter-spacing: .02em;
      }
    </style>
  </defs>
  <g id="Layer_1-2" data-name="Layer 1">
    <rect class="cls-22" y="-.22" width="1342.17" height="610" rx="10.01" ry="10.01"/>
    <rect class="cls-14" x="76.65" y="74.55" width="1192.81" height="455.65"/>
  </g>
  <g class="cls-12">
    <text class="cls-13" transform="translate(164.49 49.84)"><tspan x="0" y="0">Example: Creating a learning g</tspan><tspan class="cls-18" x="329.26" y="0">r</tspan><tspan x="337.66" y="0">aph for a unit of lessons on ‘Information technology a</tspan><tspan class="cls-16" x="913.64" y="0">r</tspan><tspan x="921.97" y="0">ound us’</tspan></text>
  </g>
  <rect class="cls-9" x="100.36" y="423.68" width="87.9" height="36.3" rx="2.92" ry="2.92"/>
  <g class="cls-12">
    <text class="cls-3" transform="translate(106.77 448.19)"><tspan x="0" y="0">Concept</tspan></text>
  </g>
  <rect class="cls-9" x="99.6" y="241.83" width="167.07" height="116.82" rx="5.56" ry="5.56"/>
  <rect class="cls-8" x="100.36" y="467.21" width="87.9" height="36.3" rx="2.92" ry="2.92"/>
  <g class="cls-12">
    <text class="cls-3" transform="translate(124.32 491.72)"><tspan x="0" y="0">Skill</tspan></text>
  </g>
  <g class="cls-12">
    <text class="cls-13" transform="translate(49.96 450.57) rotate(-90)"><tspan x="0" y="0">Prior knowledge/experience</tspan></text>
  </g>
  <g class="cls-12">
    <text class="cls-13" transform="translate(1308.26 450.44) rotate(-90)"><tspan x="0" y="0">Limit of new skills/concepts</tspan></text>
  </g>
  <g>
    <g class="cls-12">
      <g class="cls-12">
        <path class="cls-14" d="M430.85,570.51c-.13,1.84-.81,3.28-2.03,4.34s-2.83,1.58-4.83,1.58c-2.19,0-3.91-.74-5.16-2.21s-1.88-3.49-1.88-6.06v-1.04c0-1.64.29-3.09.87-4.34s1.4-2.21,2.48-2.88,2.32-1,3.74-1c1.97,0,3.55.53,4.76,1.58s1.9,2.54,2.09,4.44h-3.52c-.09-1.1-.39-1.9-.92-2.4s-1.33-.74-2.41-.74c-1.17,0-2.05.42-2.63,1.26s-.88,2.14-.9,3.91v1.29c0,1.84.28,3.19.84,4.04s1.44,1.28,2.64,1.28c1.09,0,1.9-.25,2.43-.74s.84-1.26.92-2.3h3.52Z"/>
        <path class="cls-14" d="M435.76,564.9c.9-1.08,2.03-1.62,3.39-1.62,2.75,0,4.14,1.6,4.18,4.79v8.12h-3.39v-8.03c0-.73-.16-1.26-.47-1.61s-.83-.52-1.56-.52c-.99,0-1.71.38-2.16,1.15v9.01h-3.39v-18h3.39v6.7Z"/>
        <path class="cls-14" d="M444.88,569.74c0-1.26.24-2.38.73-3.36s1.18-1.75,2.09-2.29,1.97-.81,3.17-.81c1.71,0,3.11.52,4.19,1.57s1.69,2.47,1.81,4.27l.02.87c0,1.95-.54,3.51-1.63,4.68s-2.54,1.76-4.37,1.76-3.29-.59-4.38-1.76-1.63-2.77-1.63-4.78v-.15ZM448.26,569.98c0,1.21.23,2.13.68,2.76.45.64,1.1.96,1.95.96s1.46-.31,1.92-.95c.46-.63.69-1.64.69-3.02,0-1.18-.23-2.1-.69-2.75s-1.11-.97-1.95-.97-1.47.32-1.92.97-.68,1.64-.68,3Z"/>
        <path class="cls-14" d="M457.97,569.74c0-1.26.24-2.38.73-3.36s1.18-1.75,2.09-2.29,1.97-.81,3.17-.81c1.71,0,3.11.52,4.19,1.57s1.69,2.47,1.81,4.27l.02.87c0,1.95-.54,3.51-1.63,4.68s-2.54,1.76-4.37,1.76-3.29-.59-4.38-1.76-1.63-2.77-1.63-4.78v-.15ZM461.35,569.98c0,1.21.23,2.13.68,2.76.45.64,1.1.96,1.95.96s1.46-.31,1.92-.95c.46-.63.69-1.64.69-3.02,0-1.18-.23-2.1-.69-2.75s-1.11-.97-1.95-.97-1.47.32-1.92.97-.68,1.64-.68,3Z"/>
        <path class="cls-14" d="M478.45,572.69c0-.41-.21-.74-.62-.98s-1.07-.45-1.97-.64c-3.02-.63-4.52-1.91-4.52-3.84,0-1.12.47-2.06,1.4-2.82s2.15-1.13,3.66-1.13c1.61,0,2.9.38,3.86,1.14s1.45,1.74,1.45,2.95h-3.39c0-.48-.16-.88-.47-1.2s-.8-.47-1.46-.47c-.57,0-1.01.13-1.32.39s-.47.59-.47.98c0,.38.18.68.53.91s.96.43,1.8.6,1.55.36,2.13.57c1.79.66,2.68,1.79,2.68,3.41,0,1.16-.5,2.09-1.49,2.81s-2.27,1.07-3.84,1.07c-1.06,0-2.01-.19-2.83-.57s-1.47-.9-1.94-1.56-.7-1.37-.7-2.14h3.21c.03.6.25,1.06.67,1.38s.97.48,1.66.48c.65,0,1.14-.12,1.47-.37s.5-.57.5-.97Z"/>
        <path class="cls-14" d="M489.28,576.43c-1.86,0-3.37-.57-4.54-1.71s-1.75-2.66-1.75-4.56v-.33c0-1.27.25-2.41.74-3.42s1.19-1.78,2.09-2.32,1.93-.81,3.09-.81c1.73,0,3.1.55,4.1,1.64s1.49,2.64,1.49,4.65v1.38h-8.07c.11.83.44,1.49.99,1.99s1.25.75,2.09.75c1.3,0,2.32-.47,3.06-1.42l1.66,1.86c-.51.72-1.2,1.28-2.06,1.68s-1.83.6-2.88.6ZM488.89,566.01c-.67,0-1.22.23-1.63.68s-.69,1.11-.8,1.95h4.71v-.27c-.02-.75-.22-1.34-.61-1.75s-.95-.62-1.66-.62Z"/>
        <path class="cls-14" d="M505.49,560.4v3.12h2.17v2.48h-2.17v6.33c0,.47.09.8.27,1.01s.52.3,1.03.3c.38,0,.71-.03,1-.08v2.57c-.66.2-1.35.3-2.05.3-2.38,0-3.59-1.2-3.63-3.6v-6.83h-1.85v-2.48h1.85v-3.12h3.39Z"/>
        <path class="cls-14" d="M512.37,564.9c.9-1.08,2.03-1.62,3.39-1.62,2.75,0,4.14,1.6,4.18,4.79v8.12h-3.39v-8.03c0-.73-.16-1.26-.47-1.61s-.83-.52-1.56-.52c-.99,0-1.71.38-2.16,1.15v9.01h-3.39v-18h3.39v6.7Z"/>
        <path class="cls-14" d="M527.85,576.43c-1.86,0-3.37-.57-4.54-1.71s-1.75-2.66-1.75-4.56v-.33c0-1.27.25-2.41.74-3.42s1.19-1.78,2.09-2.32,1.93-.81,3.09-.81c1.73,0,3.1.55,4.1,1.64s1.49,2.64,1.49,4.65v1.38h-8.07c.11.83.44,1.49.99,1.99s1.25.75,2.09.75c1.3,0,2.32-.47,3.06-1.42l1.66,1.86c-.51.72-1.2,1.28-2.06,1.68s-1.83.6-2.88.6ZM527.46,566.01c-.67,0-1.22.23-1.63.68s-.69,1.11-.8,1.95h4.71v-.27c-.02-.75-.22-1.34-.61-1.75s-.95-.62-1.66-.62Z"/>
        <path class="cls-14" d="M551.43,569.97c0,2.03-.43,3.62-1.3,4.75s-2.08,1.71-3.63,1.71c-1.38,0-2.47-.53-3.29-1.58l-.15,1.35h-3.05v-18h3.39v6.46c.78-.91,1.81-1.37,3.08-1.37,1.55,0,2.76.57,3.64,1.71s1.32,2.74,1.32,4.8v.19ZM548.04,569.73c0-1.28-.2-2.22-.61-2.81s-1.01-.88-1.82-.88c-1.08,0-1.82.44-2.23,1.32v5c.41.89,1.16,1.34,2.25,1.34s1.81-.54,2.16-1.62c.16-.52.25-1.3.25-2.36Z"/>
        <path class="cls-14" d="M552.51,569.74c0-1.26.24-2.38.73-3.36s1.18-1.75,2.09-2.29,1.97-.81,3.17-.81c1.71,0,3.11.52,4.19,1.57s1.69,2.47,1.81,4.27l.02.87c0,1.95-.54,3.51-1.63,4.68s-2.54,1.76-4.37,1.76-3.29-.59-4.38-1.76-1.63-2.77-1.63-4.78v-.15ZM555.89,569.98c0,1.21.23,2.13.68,2.76.45.64,1.1.96,1.95.96s1.46-.31,1.92-.95c.46-.63.69-1.64.69-3.02,0-1.18-.23-2.1-.69-2.75s-1.11-.97-1.95-.97-1.47.32-1.92.97-.68,1.64-.68,3Z"/>
        <path class="cls-14" d="M573.72,574.91c-.84,1.02-1.99,1.52-3.47,1.52-1.36,0-2.4-.39-3.11-1.17s-1.08-1.93-1.1-3.43v-8.31h3.39v8.2c0,1.32.6,1.98,1.8,1.98s1.94-.4,2.37-1.2v-8.99h3.4v12.68h-3.19l-.09-1.29Z"/>
        <path class="cls-14" d="M582.19,563.52l.11,1.46c.91-1.13,2.12-1.7,3.64-1.7,1.34,0,2.34.39,3,1.18s.99,1.97,1.01,3.54v8.19h-3.39v-8.11c0-.72-.16-1.24-.47-1.56s-.83-.49-1.56-.49c-.95,0-1.67.41-2.14,1.22v8.94h-3.39v-12.68h3.19Z"/>
        <path class="cls-14" d="M591.51,569.76c0-1.98.44-3.55,1.33-4.72s2.1-1.76,3.64-1.76c1.23,0,2.25.46,3.06,1.38v-6.47h3.4v18h-3.06l-.16-1.35c-.84,1.05-1.93,1.58-3.26,1.58-1.49,0-2.69-.59-3.59-1.76s-1.35-2.81-1.35-4.9ZM594.89,570.02c0,1.19.21,2.1.62,2.73.41.63,1.02.95,1.8.95,1.05,0,1.79-.44,2.21-1.33v-5.01c-.42-.88-1.15-1.33-2.19-1.33-1.63,0-2.45,1.33-2.45,3.98Z"/>
        <path class="cls-14" d="M612.43,576.2c-.16-.3-.27-.68-.34-1.14-.82.91-1.89,1.37-3.2,1.37-1.24,0-2.27-.36-3.09-1.08s-1.22-1.62-1.22-2.72c0-1.34.5-2.38,1.49-3.09s2.44-1.08,4.32-1.09h1.56v-.73c0-.59-.15-1.05-.45-1.41s-.78-.53-1.42-.53c-.57,0-1.02.14-1.34.41s-.49.65-.49,1.12h-3.39c0-.73.23-1.41.68-2.04s1.09-1.12,1.92-1.47,1.76-.53,2.79-.53c1.56,0,2.8.39,3.72,1.18s1.38,1.89,1.38,3.31v5.5c0,1.2.18,2.11.5,2.73v.2h-3.42ZM609.62,573.84c.5,0,.96-.11,1.38-.33s.73-.52.94-.9v-2.18h-1.27c-1.7,0-2.6.59-2.71,1.76v.2c-.01.42.14.77.43,1.04s.7.41,1.22.41Z"/>
        <path class="cls-14" d="M624.59,566.69c-.46-.06-.87-.09-1.22-.09-1.28,0-2.12.43-2.52,1.3v8.3h-3.39v-12.68h3.2l.09,1.51c.68-1.16,1.62-1.75,2.82-1.75.38,0,.73.05,1.05.15l-.05,3.26Z"/>
        <path class="cls-14" d="M625.72,560.24c0-.51.17-.93.51-1.25s.8-.49,1.39-.49,1.04.16,1.38.49.52.75.52,1.25-.17.94-.52,1.27-.81.49-1.38.49-1.03-.16-1.38-.49-.52-.75-.52-1.27ZM629.31,576.2h-3.4v-12.68h3.4v12.68Z"/>
        <path class="cls-14" d="M637.46,576.43c-1.86,0-3.37-.57-4.54-1.71s-1.75-2.66-1.75-4.56v-.33c0-1.27.25-2.41.74-3.42s1.19-1.78,2.09-2.32,1.93-.81,3.09-.81c1.73,0,3.1.55,4.1,1.64s1.49,2.64,1.49,4.65v1.38h-8.07c.11.83.44,1.49.99,1.99s1.25.75,2.09.75c1.3,0,2.32-.47,3.06-1.42l1.66,1.86c-.51.72-1.2,1.28-2.06,1.68s-1.83.6-2.88.6ZM637.07,566.01c-.67,0-1.22.23-1.63.68s-.69,1.11-.8,1.95h4.71v-.27c-.02-.75-.22-1.34-.61-1.75s-.95-.62-1.66-.62Z"/>
        <path class="cls-14" d="M650.98,572.69c0-.41-.21-.74-.62-.98s-1.07-.45-1.97-.64c-3.02-.63-4.52-1.91-4.52-3.84,0-1.12.47-2.06,1.4-2.82s2.15-1.13,3.66-1.13c1.61,0,2.9.38,3.86,1.14s1.45,1.74,1.45,2.95h-3.39c0-.48-.16-.88-.47-1.2s-.8-.47-1.46-.47c-.57,0-1.01.13-1.32.39s-.47.59-.47.98c0,.38.18.68.53.91s.96.43,1.8.6,1.55.36,2.13.57c1.79.66,2.68,1.79,2.68,3.41,0,1.16-.5,2.09-1.49,2.81s-2.27,1.07-3.84,1.07c-1.06,0-2.01-.19-2.83-.57s-1.47-.9-1.94-1.56-.7-1.37-.7-2.14h3.21c.03.6.25,1.06.67,1.38s.97.48,1.66.48c.65,0,1.14-.12,1.47-.37s.5-.57.5-.97Z"/>
        <path class="cls-14" d="M660.94,569.74c0-1.26.24-2.38.73-3.36s1.18-1.75,2.09-2.29,1.97-.81,3.17-.81c1.71,0,3.11.52,4.19,1.57s1.69,2.47,1.81,4.27l.02.87c0,1.95-.54,3.51-1.63,4.68s-2.54,1.76-4.37,1.76-3.29-.59-4.38-1.76-1.63-2.77-1.63-4.78v-.15ZM664.33,569.98c0,1.21.23,2.13.68,2.76.45.64,1.1.96,1.94.96s1.46-.31,1.92-.95c.46-.63.69-1.64.69-3.02,0-1.18-.23-2.1-.69-2.75s-1.11-.97-1.95-.97-1.47.32-1.92.97-.68,1.64-.68,3Z"/>
        <path class="cls-14" d="M675.49,576.2v-10.2h-1.89v-2.48h1.89v-1.08c0-1.42.41-2.53,1.22-3.31s1.96-1.18,3.43-1.18c.47,0,1.04.08,1.72.23l-.04,2.62c-.28-.07-.62-.11-1.03-.11-1.27,0-1.91.6-1.91,1.79v1.02h2.52v2.48h-2.52v10.2h-3.4Z"/>
        <path class="cls-14" d="M692.23,560.4v3.12h2.17v2.48h-2.17v6.33c0,.47.09.8.27,1.01s.52.3,1.03.3c.38,0,.71-.03,1-.08v2.57c-.66.2-1.35.3-2.05.3-2.38,0-3.59-1.2-3.63-3.6v-6.83h-1.85v-2.48h1.85v-3.12h3.39Z"/>
        <path class="cls-14" d="M699.11,564.9c.9-1.08,2.03-1.62,3.39-1.62,2.75,0,4.14,1.6,4.18,4.79v8.12h-3.39v-8.03c0-.73-.16-1.26-.47-1.61s-.83-.52-1.56-.52c-.99,0-1.71.38-2.16,1.15v9.01h-3.39v-18h3.39v6.7Z"/>
        <path class="cls-14" d="M714.6,576.43c-1.86,0-3.37-.57-4.54-1.71s-1.75-2.66-1.75-4.56v-.33c0-1.27.25-2.41.74-3.42s1.19-1.78,2.09-2.32,1.93-.81,3.09-.81c1.73,0,3.1.55,4.1,1.64s1.49,2.64,1.49,4.65v1.38h-8.07c.11.83.44,1.49.99,1.99s1.25.75,2.09.75c1.3,0,2.32-.47,3.06-1.42l1.66,1.86c-.51.72-1.2,1.28-2.06,1.68s-1.83.6-2.88.6ZM714.21,566.01c-.67,0-1.22.23-1.63.68s-.69,1.11-.8,1.95h4.71v-.27c-.02-.75-.22-1.34-.61-1.75s-.95-.62-1.66-.62Z"/>
        <path class="cls-14" d="M730.32,576.2h-3.4v-18h3.4v18Z"/>
        <path class="cls-14" d="M738.47,576.43c-1.86,0-3.37-.57-4.54-1.71s-1.75-2.66-1.75-4.56v-.33c0-1.27.25-2.41.74-3.42s1.19-1.78,2.09-2.32,1.93-.81,3.09-.81c1.73,0,3.1.55,4.1,1.64s1.49,2.64,1.49,4.65v1.38h-8.07c.11.83.44,1.49.99,1.99s1.25.75,2.09.75c1.3,0,2.32-.47,3.06-1.42l1.66,1.86c-.51.72-1.2,1.28-2.06,1.68s-1.83.6-2.88.6ZM738.08,566.01c-.67,0-1.22.23-1.63.68s-.69,1.11-.8,1.95h4.71v-.27c-.02-.75-.22-1.34-.61-1.75s-.95-.62-1.66-.62Z"/>
        <path class="cls-14" d="M752.47,576.2c-.16-.3-.27-.68-.34-1.14-.82.91-1.89,1.37-3.2,1.37-1.24,0-2.27-.36-3.09-1.08s-1.22-1.62-1.22-2.72c0-1.34.5-2.38,1.49-3.09s2.44-1.08,4.32-1.09h1.56v-.73c0-.59-.15-1.05-.45-1.41s-.78-.53-1.42-.53c-.57,0-1.02.14-1.34.41s-.49.65-.49,1.12h-3.39c0-.73.23-1.41.68-2.04s1.09-1.12,1.92-1.47,1.76-.53,2.79-.53c1.56,0,2.8.39,3.72,1.18s1.38,1.89,1.38,3.31v5.5c0,1.2.18,2.11.5,2.73v.2h-3.42ZM749.67,573.84c.5,0,.96-.11,1.38-.33s.73-.52.94-.9v-2.18h-1.27c-1.7,0-2.6.59-2.71,1.76v.2c-.01.42.14.77.43,1.04.3.27.7.41,1.22.41Z"/>
        <path class="cls-14" d="M764.64,566.69c-.46-.06-.87-.09-1.22-.09-1.28,0-2.12.43-2.52,1.3v8.3h-3.39v-12.68h3.2l.09,1.51c.68-1.16,1.62-1.75,2.82-1.75.38,0,.73.05,1.05.15l-.05,3.26Z"/>
        <path class="cls-14" d="M768.9,563.52l.11,1.46c.91-1.13,2.12-1.7,3.64-1.7,1.34,0,2.34.39,3,1.18s.99,1.97,1.01,3.54v8.19h-3.39v-8.11c0-.72-.16-1.24-.47-1.56s-.83-.49-1.56-.49c-.95,0-1.67.41-2.14,1.22v8.94h-3.39v-12.68h3.19Z"/>
        <path class="cls-14" d="M778.72,560.24c0-.51.17-.93.51-1.25s.8-.49,1.39-.49,1.04.16,1.38.49.52.75.52,1.25-.17.94-.52,1.27-.81.49-1.38.49-1.03-.16-1.38-.49-.52-.75-.52-1.27ZM782.32,576.2h-3.4v-12.68h3.4v12.68Z"/>
        <path class="cls-14" d="M787.75,563.52l.11,1.46c.91-1.13,2.12-1.7,3.64-1.7,1.34,0,2.34.39,3,1.18s.99,1.97,1.01,3.54v8.19h-3.39v-8.11c0-.72-.16-1.24-.47-1.56s-.83-.49-1.56-.49c-.95,0-1.67.41-2.14,1.22v8.94h-3.39v-12.68h3.19Z"/>
        <path class="cls-14" d="M797.1,569.76c0-1.95.46-3.51,1.39-4.7s2.17-1.78,3.74-1.78c1.39,0,2.47.48,3.25,1.43l.14-1.2h3.07v12.26c0,1.11-.25,2.07-.76,2.89s-1.21,1.45-2.13,1.88-1.98.64-3.21.64c-.93,0-1.84-.19-2.72-.56s-1.55-.85-2-1.44l1.5-2.06c.84.95,1.87,1.42,3.07,1.42.9,0,1.6-.24,2.1-.72s.75-1.16.75-2.04v-.68c-.78.88-1.81,1.32-3.08,1.32-1.52,0-2.76-.6-3.7-1.79-.94-1.19-1.41-2.77-1.41-4.74v-.14ZM800.49,570.02c0,1.15.23,2.05.69,2.71.46.65,1.09.98,1.9.98,1.03,0,1.77-.39,2.21-1.16v-5.34c-.45-.77-1.18-1.16-2.19-1.16-.81,0-1.45.33-1.92,1s-.7,1.66-.7,2.98Z"/>
        <path class="cls-14" d="M823.17,572.69c0-.41-.21-.74-.62-.98s-1.07-.45-1.97-.64c-3.02-.63-4.52-1.91-4.52-3.84,0-1.12.47-2.06,1.4-2.82s2.15-1.13,3.66-1.13c1.61,0,2.9.38,3.86,1.14s1.45,1.74,1.45,2.95h-3.39c0-.48-.16-.88-.47-1.2s-.8-.47-1.46-.47c-.57,0-1.01.13-1.32.39s-.47.59-.47.98c0,.38.18.68.53.91s.96.43,1.8.6,1.55.36,2.13.57c1.79.66,2.68,1.79,2.68,3.41,0,1.16-.5,2.09-1.49,2.81s-2.27,1.07-3.84,1.07c-1.06,0-2.01-.19-2.83-.57s-1.47-.9-1.94-1.56-.7-1.37-.7-2.14h3.21c.03.6.25,1.06.67,1.38s.97.48,1.66.48c.65,0,1.14-.12,1.47-.37s.5-.57.5-.97Z"/>
        <path class="cls-14" d="M834,576.43c-1.86,0-3.37-.57-4.54-1.71s-1.75-2.66-1.75-4.56v-.33c0-1.27.25-2.41.74-3.42s1.19-1.78,2.09-2.32,1.93-.81,3.09-.81c1.73,0,3.1.55,4.1,1.64s1.49,2.64,1.49,4.65v1.38h-8.07c.11.83.44,1.49.99,1.99s1.25.75,2.09.75c1.3,0,2.32-.47,3.06-1.42l1.66,1.86c-.51.72-1.2,1.28-2.06,1.68s-1.83.6-2.88.6ZM833.62,566.01c-.67,0-1.22.23-1.63.68s-.69,1.11-.8,1.95h4.71v-.27c-.02-.75-.22-1.34-.61-1.75s-.95-.62-1.66-.62Z"/>
        <path class="cls-14" d="M840.13,569.74c0-1.99.44-3.57,1.33-4.72s2.1-1.73,3.65-1.73c1.36,0,2.44.52,3.25,1.56l.22-1.32h2.98v17.55h-3.4v-5.96c-.78.88-1.8,1.32-3.07,1.32-1.51,0-2.71-.59-3.61-1.76s-1.35-2.82-1.35-4.93ZM843.52,569.98c0,1.21.21,2.14.64,2.77.43.63,1.03.95,1.8.95,1.04,0,1.77-.41,2.2-1.24v-5.25c-.42-.8-1.15-1.2-2.18-1.2-.78,0-1.39.32-1.82.95s-.64,1.64-.64,3.02Z"/>
        <path class="cls-14" d="M861.33,574.91c-.84,1.02-1.99,1.52-3.47,1.52-1.36,0-2.4-.39-3.11-1.17s-1.08-1.93-1.1-3.43v-8.31h3.39v8.2c0,1.32.6,1.98,1.8,1.98s1.94-.4,2.37-1.2v-8.99h3.4v12.68h-3.19l-.09-1.29Z"/>
        <path class="cls-14" d="M872.52,576.43c-1.86,0-3.37-.57-4.54-1.71s-1.75-2.66-1.75-4.56v-.33c0-1.27.25-2.41.74-3.42s1.19-1.78,2.09-2.32,1.93-.81,3.09-.81c1.73,0,3.1.55,4.1,1.64s1.49,2.64,1.49,4.65v1.38h-8.07c.11.83.44,1.49.99,1.99s1.25.75,2.09.75c1.3,0,2.32-.47,3.06-1.42l1.66,1.86c-.51.72-1.2,1.28-2.06,1.68s-1.83.6-2.88.6ZM872.14,566.01c-.67,0-1.22.23-1.63.68s-.69,1.11-.8,1.95h4.71v-.27c-.02-.75-.22-1.34-.61-1.75s-.95-.62-1.66-.62Z"/>
        <path class="cls-14" d="M882.3,563.52l.11,1.46c.91-1.13,2.12-1.7,3.64-1.7,1.34,0,2.34.39,3,1.18s.99,1.97,1.01,3.54v8.19h-3.39v-8.11c0-.72-.16-1.24-.47-1.56s-.83-.49-1.56-.49c-.95,0-1.67.41-2.14,1.22v8.94h-3.39v-12.68h3.19Z"/>
        <path class="cls-14" d="M897.42,573.7c.62,0,1.13-.17,1.52-.52s.59-.8.61-1.37h3.18c0,.86-.24,1.65-.7,2.36s-1.09,1.27-1.89,1.66c-.8.39-1.69.59-2.65.59-1.81,0-3.24-.58-4.29-1.73s-1.57-2.74-1.57-4.78v-.22c0-1.95.52-3.51,1.56-4.68s2.46-1.75,4.28-1.75c1.59,0,2.86.45,3.81,1.35s1.44,2.1,1.46,3.6h-3.18c-.02-.66-.22-1.2-.61-1.61-.39-.41-.91-.62-1.55-.62-.79,0-1.38.29-1.79.86-.4.58-.6,1.51-.6,2.8v.35c0,1.31.2,2.25.6,2.82s1,.86,1.82.86Z"/>
        <path class="cls-14" d="M910.01,576.43c-1.86,0-3.37-.57-4.54-1.71s-1.75-2.66-1.75-4.56v-.33c0-1.27.25-2.41.74-3.42s1.19-1.78,2.09-2.32,1.93-.81,3.09-.81c1.73,0,3.1.55,4.1,1.64s1.49,2.64,1.49,4.65v1.38h-8.07c.11.83.44,1.49.99,1.99s1.25.75,2.09.75c1.3,0,2.32-.47,3.06-1.42l1.66,1.86c-.51.72-1.2,1.28-2.06,1.68s-1.83.6-2.88.6ZM909.63,566.01c-.67,0-1.22.23-1.63.68s-.69,1.11-.8,1.95h4.71v-.27c-.02-.75-.22-1.34-.61-1.75s-.95-.62-1.66-.62Z"/>
      </g>
    </g>
    <g>
      <line class="cls-6" x1="395.94" y1="567.12" x2="108.96" y2="567.12"/>
      <polygon class="cls-14" points="111.58 558.14 96.04 567.12 111.58 576.09 111.58 558.14"/>
    </g>
    <g>
      <line class="cls-6" x1="936.23" y1="567.12" x2="1233.22" y2="567.12"/>
      <polygon class="cls-14" points="1230.59 576.09 1246.13 567.12 1230.59 558.14 1230.59 576.09"/>
    </g>
  </g>
  <g>
    <path class="cls-10" d="M484.09,140.78h4.4c9.07,0,17.03,6.01,19.52,14.73l23.16,81.13"/>
    <polygon points="523.89 236.59 533.92 246.3 537.32 232.76 523.89 236.59"/>
  </g>
  <g>
    <path class="cls-10" d="M266.67,301.56h9.98c4.84,0,8.76-3.92,8.76-8.76v-142.54c0-5.53,4.48-10.01,10.01-10.01h2.62"/>
    <polygon points="295.99 147.23 308.08 140.25 295.99 133.27 295.99 147.23"/>
  </g>
  <g>
    <path class="cls-10" d="M266.67,301.56h9.82c4.93,0,8.92,4,8.92,8.92v115.38c0,5.53,4.48,10.01,10.01,10.01h2.62"/>
    <polygon points="295.99 442.85 308.08 435.87 295.99 428.89 295.99 442.85"/>
  </g>
  <g>
    <path class="cls-10" d="M603.49,276.61h9.98c4.84,0,8.76-3.92,8.76-8.76v-62.54c0-5.53,4.48-10.01,10.01-10.01h2.62"/>
    <polygon points="632.81 202.28 644.9 195.3 632.81 188.32 632.81 202.28"/>
  </g>
  <g>
    <path class="cls-10" d="M603.49,276.61h9.82c4.93,0,8.92,4,8.92,8.92v75.38c0,5.53,4.48,10.01,10.01,10.01h2.62"/>
    <polygon points="632.81 377.9 644.9 370.92 632.81 363.94 632.81 377.9"/>
  </g>
  <g>
    <path class="cls-10" d="M902.96,383.68v6.66c0,34.65,28.09,62.73,62.73,62.73h29.9"/>
    <polygon points="992.54 460.05 1004.63 453.07 992.54 446.09 992.54 460.05"/>
  </g>
  <g>
    <path class="cls-10" d="M1054.74,137.54h24.92c13.51,0,24.47,10.95,24.47,24.47v14.16"/>
    <polygon points="1111.11 173.12 1104.13 185.21 1097.15 173.12 1111.11 173.12"/>
  </g>
  <g>
    <line class="cls-10" x1="1049.74" y1="329.54" x2="1008.28" y2="329.54"/>
    <polygon points="1047.7 322.56 1059.79 329.54 1047.7 336.52 1047.7 322.56"/>
    <polygon points="1010.33 322.56 998.24 329.54 1010.33 336.52 1010.33 322.56"/>
  </g>
  <g>
    <line class="cls-10" x1="923.82" y1="169.54" x2="923.82" y2="224.73"/>
    <polygon points="916.84 222.68 923.82 234.77 930.8 222.68 916.84 222.68"/>
  </g>
  <g>
    <line class="cls-10" x1="1129.79" y1="364.78" x2="1129.79" y2="417.97"/>
    <polygon points="1122.81 415.92 1129.79 428.01 1136.77 415.92 1122.81 415.92"/>
  </g>
  <g>
    <line class="cls-10" x1="1140.98" y1="250.95" x2="1140.98" y2="281.14"/>
    <polygon points="1134 279.09 1140.98 291.18 1147.96 279.09 1134 279.09"/>
  </g>
  <text class="cls-2" transform="translate(111.97 268.11)"><tspan class="cls-15" x="0" y="0">T</tspan><tspan class="cls-20" x="10.77" y="0">o recognise </tspan><tspan class="cls-4"><tspan x="0" y="24">different types </tspan></tspan><tspan class="cls-4"><tspan x="0" y="48">of computers </tspan></tspan><tspan class="cls-4"><tspan x="0" y="72">used in school</tspan></tspan></text>
  <rect class="cls-7" x="816.55" y="234.77" width="181.69" height="148.95" rx="5.79" ry="5.79"/>
  <text class="cls-1" transform="translate(828.92 261.05)"><tspan x="0" y="0">Are there skills </tspan><tspan x="0" y="24">or concepts </tspan><tspan x="0" y="48">that should go </tspan><tspan x="0" y="72">between these </tspan><tspan x="0" y="96">nodes?</tspan></text>
  <rect class="cls-9" x="309.23" y="96.82" width="174.86" height="90.7" rx="5.78" ry="5.78"/>
  <text class="cls-2" transform="translate(321.56 123.1)"><tspan class="cls-19" x="0" y="0">T</tspan><tspan x="10.97" y="0">o identify that </tspan><tspan x="0" y="24">a computer is </tspan><tspan x="0" y="48">a pa</tspan><tspan class="cls-23" x="37.93" y="48">r</tspan><tspan x="45.19" y="48">t of I</tspan><tspan class="cls-17" x="85.41" y="48">T</tspan></text>
  <rect class="cls-9" x="427.72" y="246.3" width="175.78" height="65.7" rx="5.11" ry="5.11"/>
  <text class="cls-2" transform="translate(440.05 272.58)"><tspan class="cls-19" x="0" y="0">T</tspan><tspan x="10.97" y="0">o recognise the </tspan><tspan x="0" y="24">features of I</tspan><tspan class="cls-17" x="107.34" y="24">T</tspan></text>
  <rect class="cls-8" x="645.38" y="164.67" width="131.81" height="65.7" rx="4.42" ry="4.42"/>
  <text class="cls-2" transform="translate(657.71 190.95)"><tspan class="cls-19" x="0" y="0">T</tspan><tspan x="10.97" y="0">o identify </tspan><tspan x="0" y="24">I</tspan><tspan class="cls-17" x="5.44" y="24">T</tspan><tspan x="16.98" y="24" xml:space="preserve"> in school</tspan></text>
  <rect class="cls-9" x="879.17" y="103.85" width="175.78" height="65.7" rx="5.11" ry="5.11"/>
  <text class="cls-2" transform="translate(891.49 130.13)"><tspan class="cls-19" x="0" y="0">T</tspan><tspan x="10.97" y="0">o talk about </tspan><tspan x="0" y="24">uses of I</tspan><tspan class="cls-17" x="75.94" y="24">T</tspan></text>
  <rect class="cls-9" x="1041.93" y="185.11" width="175.78" height="65.7" rx="5.11" ry="5.11"/>
  <text class="cls-2" transform="translate(1054.26 211.39)"><tspan class="cls-19" x="0" y="0">T</tspan><tspan x="10.97" y="0">o explain how </tspan><tspan x="0" y="24">I</tspan><tspan class="cls-17" x="5.44" y="24">T</tspan><tspan x="16.98" y="24" xml:space="preserve"> benefits us</tspan></text>
  <rect class="cls-5" x="1059.93" y="291.24" width="186.78" height="88.48" rx="5.79" ry="5.79"/>
  <text class="cls-2" transform="translate(1072.26 317.52)"><tspan class="cls-19" x="0" y="0">T</tspan><tspan x="10.97" y="0">o recognise that </tspan><tspan x="0" y="24">choices are made </tspan><tspan x="0" y="48">when using I</tspan><tspan class="cls-17" x="111.46" y="48">T</tspan></text>
  <rect class="cls-8" x="1005.06" y="428.42" width="175.78" height="65.7" rx="5.11" ry="5.11"/>
  <text class="cls-2" transform="translate(1017.39 454.7)"><tspan class="cls-19" x="0" y="0">T</tspan><tspan x="10.97" y="0">o show how </tspan><tspan class="cls-21" x="122.44" y="0">t</tspan><tspan x="128.78" y="0">o </tspan><tspan x="0" y="24">use I</tspan><tspan class="cls-17" x="42.32" y="24">T</tspan><tspan x="53.87" y="24" xml:space="preserve"> safely</tspan></text>
  <rect class="cls-8" x="645.38" y="328.25" width="122.22" height="89.66" rx="4.97" ry="4.97"/>
  <text class="cls-2" transform="translate(657.71 354.53)"><tspan class="cls-19" x="0" y="0">T</tspan><tspan x="10.97" y="0">o identify </tspan><tspan x="0" y="24">I</tspan><tspan class="cls-17" x="5.44" y="24">T</tspan><tspan x="16.98" y="24" xml:space="preserve"> beyond </tspan><tspan x="0" y="48">school</tspan></text>
  <rect class="cls-8" x="309.23" y="393.95" width="172.65" height="92.46" rx="6" ry="6"/>
  <text class="cls-2" transform="translate(321.56 420.23)"><tspan class="cls-19" x="0" y="0">T</tspan><tspan x="10.97" y="0">o describe </tspan><tspan x="0" y="24">some uses of </tspan><tspan x="0" y="48">computers</tspan></text>
  <g>
    <line class="cls-11" x1="389.44" y1="197.56" x2="389.44" y2="393.85"/>
    <polygon points="382.46 199.61 389.44 187.52 396.42 199.61 382.46 199.61"/>
  </g>
  <g>
    <line class="cls-11" x1="487.09" y1="125.26" x2="869.12" y2="125.26"/>
    <polygon points="867.08 132.24 879.17 125.26 867.08 118.28 867.08 132.24"/>
  </g>
  <g>
    <path class="cls-11" d="M994.87,472.29h-240.89c-10.75,0-21.5-.55-32.2-1.64l-239.91-24.55"/>
    <polygon points="992.83 465.31 1004.92 472.29 992.83 479.27 992.83 465.31"/>
  </g>
  <g>
    <path class="cls-10" d="M777.19,195.3h12.52c8.93,0,17.4-3.92,23.19-10.71l26.81-31.49c5.79-6.8,14.26-10.71,23.19-10.71h5.71"/>
    <polygon points="866.56 149.36 878.65 142.38 866.56 135.4 866.56 149.36"/>
  </g>
  <g>
    <path class="cls-10" d="M768.24,373.72h6.08c8.14,0,14.99-6.11,15.91-14.2l13.9-122.14c2.33-20.47,13.07-39.05,29.64-51.3l36.8-27.19"/>
    <polygon points="873.08 165.72 878.65 152.92 864.78 154.49 873.08 165.72"/>
  </g>
</svg>