<?xml version="1.0" encoding="UTF-8" standalone="no"?>
<svg
   width="256"
   height="256"
   viewBox="0 0 24 24"
   fill="none"
   stroke="currentColor"
   stroke-width="1"
   stroke-linecap="round"
   stroke-linejoin="round"
   class="lucide lucide-squares-intersect-icon lucide-squares-intersect"
   version="1.1"
   id="svg11"
   sodipodi:docname="theme_consistent.svg"
   inkscape:version="1.4.2 (ebf0e940, 2025-05-08)"
   xmlns:inkscape="http://www.inkscape.org/namespaces/inkscape"
   xmlns:sodipodi="http://sodipodi.sourceforge.net/DTD/sodipodi-0.dtd"
   xmlns="http://www.w3.org/2000/svg"
   xmlns:svg="http://www.w3.org/2000/svg">
  <defs
     id="defs11" />
  <sodipodi:namedview
     id="namedview11"
     pagecolor="#ffffff"
     bordercolor="#000000"
     borderopacity="0.25"
     inkscape:showpageshadow="2"
     inkscape:pageopacity="0.0"
     inkscape:pagecheckerboard="0"
     inkscape:deskcolor="#d1d1d1"
     inkscape:zoom="0.1015625"
     inkscape:cx="128"
     inkscape:cy="123.07692"
     inkscape:window-width="1712"
     inkscape:window-height="1044"
     inkscape:window-x="0"
     inkscape:window-y="40"
     inkscape:window-maximized="1"
     inkscape:current-layer="svg11" />
  <path
     d="M10 22a2 2 0 0 1-2-2"
     id="path1"
     style="stroke:#a22846;stroke-opacity:1;stroke-width:1.40625;stroke-dasharray:none" />
  <path
     d="M14 2a2 2 0 0 1 2 2"
     id="path2"
     style="stroke:#a22846;stroke-opacity:1;stroke-width:1.40625;stroke-dasharray:none" />
  <path
     d="M16 22h-2"
     id="path3"
     style="stroke:#a22846;stroke-opacity:1;stroke-width:1.40625;stroke-dasharray:none" />
  <path
     d="M2 10V8"
     id="path4"
     style="stroke:#a22846;stroke-opacity:1;stroke-width:1.40625;stroke-dasharray:none" />
  <path
     d="M2 4a2 2 0 0 1 2-2"
     id="path5"
     style="stroke:#a22846;stroke-opacity:1;stroke-width:1.40625;stroke-dasharray:none" />
  <path
     d="M20 8a2 2 0 0 1 2 2"
     id="path6"
     style="stroke:#a22846;stroke-opacity:1;stroke-width:1.40625;stroke-dasharray:none" />
  <path
     d="M22 14v2"
     id="path7"
     style="stroke:#a22846;stroke-opacity:1;stroke-width:1.40625;stroke-dasharray:none" />
  <path
     d="M22 20a2 2 0 0 1-2 2"
     id="path8"
     style="stroke:#a22846;stroke-opacity:1;stroke-width:1.40625;stroke-dasharray:none" />
  <path
     d="M4 16a2 2 0 0 1-2-2"
     id="path9"
     style="stroke:#a22846;stroke-opacity:1;stroke-width:1.40625;stroke-dasharray:none" />
  <path
     d="M8 10a2 2 0 0 1 2-2h5a1 1 0 0 1 1 1v5a2 2 0 0 1-2 2H9a1 1 0 0 1-1-1z"
     id="path10"
     style="stroke:#a22846;stroke-opacity:1;stroke-width:1.40625;stroke-dasharray:none" />
  <path
     d="M8 2h2"
     id="path11"
     style="stroke:#a22846;stroke-opacity:1;stroke-width:1.40625;stroke-dasharray:none" />
</svg>
