<?xml version="1.0" encoding="UTF-8" standalone="no"?>
<svg
   width="256"
   height="256"
   viewBox="0 0 24 24"
   fill="none"
   stroke="currentColor"
   stroke-width="1"
   stroke-linecap="round"
   stroke-linejoin="round"
   class="lucide lucide-replace-all-icon lucide-replace-all"
   version="1.1"
   id="svg8"
   sodipodi:docname="theme_adaptable.svg"
   inkscape:version="1.4.2 (ebf0e940, 2025-05-08)"
   xmlns:inkscape="http://www.inkscape.org/namespaces/inkscape"
   xmlns:sodipodi="http://sodipodi.sourceforge.net/DTD/sodipodi-0.dtd"
   xmlns="http://www.w3.org/2000/svg"
   xmlns:svg="http://www.w3.org/2000/svg">
  <defs
     id="defs8" />
  <sodipodi:namedview
     id="namedview8"
     pagecolor="#ffffff"
     bordercolor="#000000"
     borderopacity="0.25"
     inkscape:showpageshadow="2"
     inkscape:pageopacity="0.0"
     inkscape:pagecheckerboard="0"
     inkscape:deskcolor="#d1d1d1"
     inkscape:zoom="0.1015625"
     inkscape:cx="128"
     inkscape:cy="123.07692"
     inkscape:window-width="1712"
     inkscape:window-height="1044"
     inkscape:window-x="0"
     inkscape:window-y="40"
     inkscape:window-maximized="1"
     inkscape:current-layer="svg8" />
  <path
     d="M14 14a1 1 0 0 1 1 1v5a1 1 0 0 1-1 1"
     id="path1"
     style="stroke:#a22846;stroke-opacity:1;stroke-width:1.40625;stroke-dasharray:none" />
  <path
     d="M14 4a1 1 0 0 1 1-1"
     id="path2"
     style="stroke:#a22846;stroke-opacity:1;stroke-width:1.40625;stroke-dasharray:none" />
  <path
     d="M15 10a1 1 0 0 1-1-1"
     id="path3"
     style="stroke:#a22846;stroke-opacity:1;stroke-width:1.40625;stroke-dasharray:none" />
  <path
     d="M19 14a1 1 0 0 1 1 1v5a1 1 0 0 1-1 1"
     id="path4"
     style="stroke:#a22846;stroke-opacity:1;stroke-width:1.40625;stroke-dasharray:none" />
  <path
     d="M21 4a1 1 0 0 0-1-1"
     id="path5"
     style="stroke:#a22846;stroke-opacity:1;stroke-width:1.40625;stroke-dasharray:none" />
  <path
     d="M21 9a1 1 0 0 1-1 1"
     id="path6"
     style="stroke:#a22846;stroke-opacity:1;stroke-width:1.40625;stroke-dasharray:none" />
  <path
     d="m3 7 3 3 3-3"
     id="path7"
     style="stroke:#a22846;stroke-opacity:1;stroke-width:1.40625;stroke-dasharray:none" />
  <path
     d="M6 10V5a2 2 0 0 1 2-2h2"
     id="path8"
     style="stroke:#a22846;stroke-opacity:1;stroke-width:1.40625;stroke-dasharray:none" />
  <rect
     x="3"
     y="14"
     width="7"
     height="7"
     rx="1"
     id="rect8"
     style="stroke:#a22846;stroke-opacity:1;stroke-width:1.40625;stroke-dasharray:none" />
</svg>
