<?xml version="1.0" encoding="UTF-8" standalone="no"?>
<svg
   width="256"
   height="256"
   viewBox="0 0 24 24"
   fill="none"
   stroke="currentColor"
   stroke-width="1"
   stroke-linecap="round"
   stroke-linejoin="round"
   class="lucide lucide-book-copy-icon lucide-book-copy"
   version="1.1"
   id="svg3"
   sodipodi:docname="theme_research.svg"
   inkscape:version="1.4.2 (ebf0e940, 2025-05-08)"
   xmlns:inkscape="http://www.inkscape.org/namespaces/inkscape"
   xmlns:sodipodi="http://sodipodi.sourceforge.net/DTD/sodipodi-0.dtd"
   xmlns="http://www.w3.org/2000/svg"
   xmlns:svg="http://www.w3.org/2000/svg">
  <defs
     id="defs3" />
  <sodipodi:namedview
     id="namedview3"
     pagecolor="#ffffff"
     bordercolor="#000000"
     borderopacity="0.25"
     inkscape:showpageshadow="2"
     inkscape:pageopacity="0.0"
     inkscape:pagecheckerboard="0"
     inkscape:deskcolor="#d1d1d1"
     inkscape:zoom="0.56461821"
     inkscape:cx="-106.2665"
     inkscape:cy="179.76749"
     inkscape:window-width="1712"
     inkscape:window-height="1044"
     inkscape:window-x="0"
     inkscape:window-y="40"
     inkscape:window-maximized="1"
     inkscape:current-layer="svg3" />
  <path
     d="M5 7a2 2 0 0 0-2 2v11"
     id="path1"
     style="fill:none;fill-opacity:1;stroke:#a22846;stroke-opacity:1;stroke-width:1.40625;stroke-dasharray:none" />
  <path
     d="M5.803 18H5a2 2 0 0 0 0 4h9.5a.5.5 0 0 0 .5-.5V21"
     id="path2"
     style="fill:none;fill-opacity:1;stroke:#a22846;stroke-opacity:1;stroke-width:1.40625;stroke-dasharray:none" />
  <path
     d="M9 15V4a2 2 0 0 1 2-2h9.5a.5.5 0 0 1 .5.5v14a.5.5 0 0 1-.5.5H11a2 2 0 0 1 0-4h10"
     id="path3"
     style="fill:none;fill-opacity:1;stroke:#a22846;stroke-opacity:1;stroke-width:1.40625;stroke-dasharray:none" />
</svg>
