<svg role="img" viewBox="0 0 24 24" xmlns="http://www.w3.org/2000/svg" fill="#D83B01">
  <title>Microsoft Office</title>
  <path d="M6.5 0C5.122 0 4 1.122 4 2.5V3H1.5C.672 3 0 3.672 0 4.5v15c0 .828.672 1.5 1.5 1.5H16.5c.828 0 1.5-.672 1.5-1.5V21h2.5c1.378 0 2.5-1.122 2.5-2.5V6.914a1.5 1.5 0 0 0-.44-1.06L19.146.44A1.5 1.5 0 0 0 18.086 0zm0 1.5h11.086c.066 0 .13.026.177.073l2.664 2.664a.25.25 0 0 1 .073.177V18.5a1 1 0 0 1-1 1H17V7.5a1.5 1.5 0 0 0-1.5-1.5H6V2.5a1 1 0 0 1 1-1zM1.5 4.5H15a.5.5 0 0 1 .5.5v14a.5.5 0 0 1-.5.5H1.5a.5.5 0 0 1-.5-.5V5a.5.5 0 0 1 .5-.5zM3 7v1.5h2.5V7zm3.5 0v1.5H9V7zm3 0v1.5h2.5V7zM3 10v1.5h2.5V10zm3.5 0v1.5H9V10zm3 0v1.5h2.5V10zM3 13v1.5h2.5V13zm3.5 0v1.5H9V13zm3 0v1.5h2.5V13z"/>
</svg>
